#!OML:ASF H:\MichaelJackson\Top Level 1\Subject 1\Session 1\male.ASF
:FULLY-SPECIFIED
:DEGREES
1
root 5.17233 16.9371 -29.1264 8.38076 1.94741 -2.26614
lowerback -6.82206 0.538825 0.390498
upperback -1.63486 0.664959 1.0462
thorax 2.13013 0.332788 0.914186
lowerneck -7.86071 -1.94787 -1.9726
upperneck -0.220098 -2.47453 2.73312
head 1.32505 -1.18116 1.10409
rclavicle 7.62914e-015 -1.02871e-014
rhumerus -36.7391 1.18325 -91.2297
rradius 31.3876
rwrist 19.6376
rhand -31.5024 -16.7423
rfingers 7.12502
rthumb -4.76825 -46.6687
lclavicle 7.62914e-015 -1.02871e-014
lhumerus -39.8521 -13.6383 98.4494
lradius 40.3739
lwrist 7.08778
lhand -10.6128 1.16094
lfingers 7.12502
lthumb 15.3935 30.5678
rfemur -17.0741 5.5191 20.6239
rtibia 30.9792
rfoot -20.2398 -5.48925
rtoes 51.7622
lfemur -20.2828 1.98366 -20.4629
ltibia 32.7459
lfoot -17.9061 10.509
ltoes 15.9273
2
root 5.16872 16.9391 -29.1244 8.48391 1.84342 -2.28822
lowerback -6.90516 0.578761 0.40175
upperback -1.65694 0.716393 1.0573
thorax 2.15297 0.358471 0.924546
lowerneck -7.87916 -1.95304 -2.01881
upperneck -0.212456 -2.47843 2.79057
head 1.33283 -1.18183 1.13009
rclavicle -1.40298e-014 -1.06847e-015
rhumerus -36.6998 1.16089 -91.1453
rradius 31.3833
rwrist 19.7046
rhand -31.5204 -16.5416
rfingers 7.12502
rthumb -4.78566 -46.4676
lclavicle -1.40298e-014 -1.06847e-015
lhumerus -39.8314 -13.7001 98.466
lradius 40.407
lwrist 7.13183
lhand -10.5646 1.50326
lfingers 7.12502
lthumb 15.4399 30.9066
rfemur -17.1099 5.53577 20.634
rtibia 30.7746
rfoot -20.0425 -5.61796
rtoes 51.3969
lfemur -20.5178 3.03545 -20.5468
ltibia 32.8501
lfoot -17.1533 10.8829
ltoes 8.18672
3
root 5.159 16.9547 -29.1152 8.35622 2.03552 -2.26361
lowerback -6.8595 0.503653 0.264645
upperback -1.59904 0.625026 1.09437
thorax 2.18649 0.312127 1.03178
lowerneck -7.94916 -1.98052 -1.97021
upperneck -0.150715 -2.51788 2.72179
head 1.36369 -1.20217 1.09801
rclavicle 4.34841e-016 3.95085e-015
rhumerus -36.6626 1.16565 -91.0935
rradius 31.414
rwrist 19.668
rhand -27.4925 -18.1419
rfingers 7.12502
rthumb -0.895715 -48.1198
lclavicle 4.34841e-016 3.95085e-015
lhumerus -39.8103 -13.7089 98.4559
lradius 40.3753
lwrist 7.12901
lhand -10.6416 1.7162
lfingers 7.12502
lthumb 15.3657 31.1252
rfemur -16.8535 5.74706 20.6873
rtibia 30.7424
rfoot -20.332 -5.87084
rtoes 51.4145
lfemur -20.2198 2.53135 -20.2938
ltibia 32.8493
lfoot -18.1128 9.70105
ltoes 13.6293
4
root 5.15574 16.941 -29.1142 8.48618 1.92657 -2.27637
lowerback -6.97316 0.538071 0.300914
upperback -1.61957 0.667379 1.09369
thorax 2.22836 0.333365 1.01556
lowerneck -7.97846 -1.98262 -1.96728
upperneck -0.152738 -2.52036 2.71792
head 1.36811 -1.20328 1.09602
rclavicle -1.8136e-014 -2.1916e-014
rhumerus -36.6709 1.2788 -91.0875
rradius 31.5399
rwrist 19.6172
rhand -27.4091 -18.3313
rfingers 7.12502
rthumb -0.815211 -48.3095
lclavicle -1.8136e-014 -2.1916e-014
lhumerus -39.7566 -13.6807 98.4252
lradius 40.3455
lwrist 7.06246
lhand -10.6666 1.76344
lfingers 7.12502
lthumb 15.3416 31.1743
rfemur -17.0269 5.73927 20.6772
rtibia 30.7253
rfoot -20.0371 -6.47325
rtoes 49.4607
lfemur -20.5517 3.74726 -20.5558
ltibia 32.8458
lfoot -17.0818 10.4664
ltoes 6.08773
5
root 5.14543 16.9446 -29.1148 8.45343 2.02283 -2.28447
lowerback -7.13599 0.539253 0.178839
upperback -1.45191 0.673574 1.12913
thorax 2.48992 0.334766 1.12462
lowerneck -7.99523 -2.03536 -1.93613
upperneck -0.317293 -2.58952 2.69626
head 1.31868 -1.23857 1.08112
rclavicle -2.81094e-016 -1.04362e-015
rhumerus -36.4641 1.26519 -91.0166
rradius 31.6393
rwrist 19.5451
rhand -28.1249 -18.0537
rfingers 7.12502
rthumb -1.50649 -48.0281
lclavicle -2.81094e-016 -1.04362e-015
lhumerus -39.4853 -13.8749 98.438
lradius 40.3355
lwrist 7.06698
lhand -10.7617 2.50095
lfingers 7.12502
lthumb 15.25 31.9188
rfemur -16.9429 6.07759 20.7416
rtibia 30.6769
rfoot -20.1702 -7.00573
rtoes 48.939
lfemur -20.4712 3.10147 -20.4075
ltibia 32.861
lfoot -17.419 10.4338
ltoes 9.08042
6
root 5.13705 16.9441 -29.115 8.46745 2.04976 -2.31748
lowerback -7.19898 0.541079 0.130979
upperback -1.39427 0.677513 1.162
thorax 2.58344 0.335916 1.18706
lowerneck -8.02338 -2.06252 -1.92511
upperneck -0.361309 -2.62515 2.68428
head 1.30983 -1.25651 1.07395
rclavicle -1.12127e-014 -1.53064e-014
rhumerus -36.3683 1.28503 -90.967
rradius 31.7033
rwrist 19.5107
rhand -27.7742 -18.2105
rfingers 7.12502
rthumb -1.16783 -48.187
lclavicle -1.12127e-014 -1.53064e-014
lhumerus -39.3605 -13.9354 98.4237
lradius 40.3021
lwrist 7.04107
lhand -10.821 2.80853
lfingers 7.12502
lthumb 15.1929 32.2307
rfemur -16.9852 6.34077 20.8094
rtibia 30.7469
rfoot -20.2929 -7.38233
rtoes 48.4537
lfemur -20.501 3.1789 -20.3539
ltibia 32.8252
lfoot -17.3054 10.5136
ltoes 8.31513
7
root 5.12825 16.9432 -29.1162 8.48126 2.07564 -2.3622
lowerback -7.24273 0.541921 0.0905346
upperback -1.34437 0.67974 1.19897
thorax 2.65833 0.336254 1.24914
lowerneck -8.05084 -2.089 -1.91591
upperneck -0.393783 -2.6599 2.67001
head 1.30453 -1.27404 1.0664
rclavicle -6.1732e-015 1.53064e-014
rhumerus -36.2749 1.30453 -90.9213
rradius 31.7557
rwrist 19.4791
rhand -27.5689 -18.3147
rfingers 7.12502
rthumb -0.969542 -48.2922
lclavicle -6.1732e-015 1.53064e-014
lhumerus -39.2419 -13.9786 98.4001
lradius 40.2517
lwrist 7.00406
lhand -10.8849 3.06324
lfingers 7.12502
lthumb 15.1314 32.4901
rfemur -16.9911 6.64576 20.8915
rtibia 30.7281
rfoot -20.4068 -7.76693
rtoes 48.1336
lfemur -20.5528 3.15994 -20.278
ltibia 32.841
lfoot -17.2467 10.6351
ltoes 7.93787
8
root 5.11961 16.942 -29.1179 8.50469 2.0868 -2.41274
lowerback -7.27032 0.544572 0.0618962
upperback -1.31076 0.683796 1.23559
thorax 2.70752 0.337675 1.30408
lowerneck -8.07685 -2.11263 -1.91495
upperneck -0.405909 -2.69061 2.66034
head 1.30568 -1.28942 1.06187
rclavicle -4.34686e-015 -5.26779e-015
rhumerus -36.1936 1.32306 -90.8803
rradius 31.7932
rwrist 19.4595
rhand -27.5993 -18.323
rfingers 7.12502
rthumb -0.998947 -48.3004
lclavicle -4.34686e-015 -5.26779e-015
lhumerus -39.1406 -13.9982 98.3657
lradius 40.1865
lwrist 6.95946
lhand -10.9318 3.20356
lfingers 7.12502
lthumb 15.0862 32.6338
rfemur -17.0256 6.96291 20.9756
rtibia 30.735
rfoot -20.5406 -8.11278
rtoes 47.9305
lfemur -20.6122 3.10871 -20.1995
ltibia 32.8456
lfoot -17.1629 10.8227
ltoes 7.51001
9
root 5.11115 16.9418 -29.1193 8.52575 2.09729 -2.46221
lowerback -7.27965 0.543583 0.0360048
upperback -1.29103 0.683111 1.27164
thorax 2.73236 0.336861 1.35609
lowerneck -8.10014 -2.13335 -1.92189
upperneck -0.394018 -2.71729 2.65389
head 1.3142 -1.30268 1.05987
rclavicle -9.03849e-015 -9.24349e-015
rhumerus -36.1291 1.3405 -90.8434
rradius 31.8139
rwrist 19.449
rhand -27.6277 -18.3231
rfingers 7.12502
rthumb -1.02635 -48.3004
lclavicle -9.03849e-015 -9.24349e-015
lhumerus -39.06 -13.9914 98.3228
lradius 40.1026
lwrist 6.90822
lhand -10.9746 3.27288
lfingers 7.12502
lthumb 15.045 32.7062
rfemur -17.0511 7.2802 21.0584
rtibia 30.7352
rfoot -20.6911 -8.42244
rtoes 47.8483
lfemur -20.655 2.9768 -20.1055
ltibia 32.8528
lfoot -17.1501 10.9783
ltoes 7.55667
10
root 5.10354 16.9413 -29.12 8.55361 2.0917 -2.50618
lowerback -7.28409 0.54466 0.0203605
upperback -1.28548 0.68474 1.30225
thorax 2.73997 0.337401 1.39674
lowerneck -8.12195 -2.15048 -1.93655
upperneck -0.359579 -2.73898 2.6509
head 1.32984 -1.31333 1.06046
rclavicle 2.51587e-016 2.48481e-016
rhumerus -36.0822 1.35689 -90.8111
rradius 31.8228
rwrist 19.4466
rhand -27.6462 -18.3268
rfingers 7.12502
rthumb -1.04416 -48.304
lclavicle 2.51587e-016 2.48481e-016
lhumerus -38.9988 -13.9601 98.2715
lradius 40.005
lwrist 6.85169
lhand -11.0048 3.26662
lfingers 7.12502
lthumb 15.0158 32.7021
rfemur -17.0833 7.56041 21.1288
rtibia 30.7316
rfoot -20.8155 -8.69732
rtoes 47.7492
lfemur -20.702 2.85929 -20.0264
ltibia 32.8586
lfoot -17.1219 11.1652
ltoes 7.45979
11
root 5.09691 16.9421 -29.1198 8.58603 2.0742 -2.53908
lowerback -7.27505 0.544421 0.0103035
upperback -1.2993 0.68471 1.32629
thorax 2.72026 0.337355 1.42698
lowerneck -8.14321 -2.16261 -1.95626
upperneck -0.295829 -2.75403 2.64558
head 1.35474 -1.32064 1.06141
rclavicle 3.37002e-015 -4.47266e-015
rhumerus -36.0676 1.38374 -90.7876
rradius 31.8277
rwrist 19.4465
rhand -27.6613 -18.3265
rfingers 7.12502
rthumb -1.05884 -48.3036
lclavicle 3.37002e-015 -4.47266e-015
lhumerus -38.9642 -13.8957 98.2114
lradius 39.8913
lwrist 6.78805
lhand -11.0193 3.17505
lfingers 7.12502
lthumb 15.0019 32.6116
rfemur -17.1136 7.79061 21.1816
rtibia 30.7192
rfoot -20.8907 -8.96977
rtoes 47.503
lfemur -20.7391 2.72507 -19.9544
ltibia 32.8636
lfoot -17.1493 11.2993
ltoes 7.6585
